<svg width="393" height="96" fill="none" xmlns="http://www.w3.org/2000/svg"><path d="M157.021 18.76v.225c0 .906-.755 2.038-2.264 3.245-.679.528-.98 1.207-.98 2.112 0 .68.226 1.283.83 1.736.528.528 1.131.754 1.886.754.679 0 1.358-.226 1.961-.679 1.887-1.132 3.471-2.716 4.754-4.753 1.282-1.962 1.961-4.074 1.961-6.262 0-2.037-.603-3.622-1.735-4.83-1.207-1.13-2.716-1.734-4.527-1.734-1.509 0-2.791.603-3.848 1.66-1.131 1.056-1.66 2.338-1.584 3.847 0 1.358.302 2.49 1.056 3.245.679.83 1.509 1.282 2.49 1.433z" fill="#FF4E75"/><path fill-rule="evenodd" clip-rule="evenodd" d="M311.291 22.892s-8.573-.944-10.974 6.944v-1.029a6.513 6.513 0 0 0-6.516-6.516 6.513 6.513 0 0 0-6.516 6.516v29.15c0 3.602 2.915 6.517 6.516 6.517a6.513 6.513 0 0 0 6.516-6.516v-12.69s0-11.23 10.374-9.773c0 0 4.973.6 6.259-4.116.257-1.629 1.2-7.544-5.659-8.487zM260.363 22.291c-12.174 0-21.777 9.003-21.777 21.177 0 11.06 9.431 21.177 21.777 21.177 12.946 0 21.777-9.26 21.777-21.177.086-12.432-9.431-21.177-21.777-21.177zm-.257 31.723c-5.573 0-9.688-4.287-9.688-9.774 0-5.659 3.858-10.117 9.688-10.117 5.744 0 9.688 4.201 9.688 9.517-.085 6.43-3.686 10.374-9.688 10.374zM233.442 35.847c0-.686 0-13.032-14.318-13.547-2.143 0-6.859-.428-13.117 6.945 0 0-3.001-6.602-11.489-6.945-7.716-.257-11.832 5.145-12.346 5.745-.686-2.915-3.258-5.059-6.345-5.059a6.513 6.513 0 0 0-6.516 6.516v28.636a6.513 6.513 0 0 0 6.516 6.516 6.513 6.513 0 0 0 6.516-6.516V40.305s0-6.516 6.859-6.602c0 0 5.402.086 5.573 6.602v17.747c0 3.601 2.915 6.516 6.516 6.516a6.513 6.513 0 0 0 6.516-6.516V40.305c.086-2.058.943-6.602 6.516-6.688.343.086 5.916 0 5.916 7.888v16.547c0 3.601 2.915 6.516 6.516 6.516a6.513 6.513 0 0 0 6.516-6.516c.171.086.171-16.461.171-22.205zM134.667 54.568c-1.801-.171-3.344-1.029-4.716-2.23-.171-.085-3.858-2.914-7.201-.342-3.516 2.915-1.115 6.687-.343 7.287 2.314 2.573 6.173 4.802 11.917 5.059 8.831.257 16.718-4.458 16.976-13.29.428-13.46-18.691-12.345-18.605-16.718.086-1.629 1.372-2.658 3.429-2.486 1.972 0 2.487.6 3.773 1.286 1.2.686 4.972 1.715 7.545-.6 2.4-2.658.857-5.744.943-5.659-.943-2.229-4.03-4.801-10.717-5.401-8.488-.6-16.29 5.659-16.719 13.546-.343 13.89 18.348 11.917 18.262 16.719 0 1.972-2.486 2.83-4.544 2.83zM376.36 54.568c-1.8-.171-3.344-1.029-4.715-2.23-.172-.085-3.859-2.914-7.202-.342-3.515 2.915-1.115 6.687-.343 7.287 2.315 2.573 6.173 4.802 11.917 5.059 8.831.257 16.719-4.458 16.976-13.29.429-13.46-18.691-12.345-18.605-16.718.086-1.629 1.372-2.658 3.43-2.486 1.972 0 2.486.6 3.772 1.286 1.2.686 4.973 1.715 7.545-.6 2.4-2.658.857-5.744.943-5.659-.943-2.229-4.03-4.801-10.717-5.401-8.488-.6-16.29 5.659-16.719 13.546-.343 13.89 18.348 11.917 18.262 16.719 0 1.972-2.486 2.83-4.544 2.83z" fill="#FF4E75"/><path d="M330.456 46.437c9.615 0 16.292-.089 20.031-.266 2.849 0 4.718-.619 5.609-1.769.89-1.061 1.424-3.007 1.424-5.66 0-4.245-1.781-8.048-5.342-11.41-3.561-3.36-7.923-5.04-13.176-5.04-5.875 0-10.861 2.122-14.867 6.367-4.095 4.246-6.054 9.552-6.054 15.832 0 5.483 2.048 10.17 6.054 14.062 3.917 3.892 8.725 5.75 14.422 5.75 6.054 0 10.773-1.062 14.334-3.273 1.958-1.15 3.026-2.742 3.026-4.688 0-1.503-.534-2.83-1.513-3.98-.979-1.15-2.137-1.769-3.472-1.769-1.157 0-2.493.443-4.006 1.239-2.315 1.415-4.808 2.034-7.478 2.034-2.315 0-4.274-.708-6.054-2.123-1.781-1.415-2.76-3.184-2.938-5.306zm8.546-14.594c1.959 0 3.562.62 4.986 1.77 1.335 1.237 2.048 2.741 2.048 4.598 0 .354-.357.53-1.069.53-4.807.266-9.615.355-14.511.355.178-1.946 1.068-3.627 2.671-5.042 1.602-1.415 3.561-2.21 5.875-2.21z" fill="#FF4E75"/><path d="M178.599 90.023l-3.175-4.347h-2.19v4.347h-1.125V79.279h3.724c.634 0 1.197.085 1.688.255.491.165.884.395 1.179.69.299.29.524.62.676.99.152.372.228.771.228 1.2 0 .442-.078.848-.235 1.219-.156.366-.37.674-.643.924-.272.25-.585.456-.937.617a4.05 4.05 0 0 1-1.132.314l3.309 4.535h-1.367zm-5.365-5.372h2.498c.469 0 .882-.062 1.24-.188.361-.124.647-.292.857-.502a2.16 2.16 0 0 0 .63-1.507c0-.223-.029-.433-.088-.63a1.724 1.724 0 0 0-.281-.569 1.733 1.733 0 0 0-.496-.475 2.49 2.49 0 0 0-.777-.322 4.28 4.28 0 0 0-1.065-.12h-2.518v4.313zM214.575 79.28h6.718v1.044H215.7v3.718h5.118v1.038H215.7v3.898h5.647v1.045h-6.772V79.279zM262.996 87.277h-5.848l-1.179 2.746h-1.152l4.629-10.744h1.279l4.635 10.744h-1.192l-1.172-2.746zm-2.934-6.832l-2.492 5.807h4.99l-2.498-5.807zM303.814 90.137a5.48 5.48 0 0 1-2.09-.402 5.3 5.3 0 0 1-1.708-1.105 5.192 5.192 0 0 1-1.138-1.735 5.827 5.827 0 0 1-.416-2.21c0-.795.143-1.539.429-2.23a5.15 5.15 0 0 1 1.172-1.756 5.417 5.417 0 0 1 1.722-1.125 5.413 5.413 0 0 1 2.083-.409c.562 0 1.092.076 1.587.228a4.547 4.547 0 0 1 2.204 1.427c.277.312.493.627.65.944.16.313.279.625.355.938l-1.079.382a3.835 3.835 0 0 0-.629-1.3 3.957 3.957 0 0 0-.697-.75c-.259-.219-.601-.406-1.025-.563a3.997 3.997 0 0 0-1.393-.234 4.17 4.17 0 0 0-1.621.322c-.513.214-.96.51-1.34.89a4.25 4.25 0 0 0-.911 1.394 4.673 4.673 0 0 0-.334 1.775c0 .84.18 1.598.542 2.277a4.02 4.02 0 0 0 1.507 1.594 4.174 4.174 0 0 0 2.17.576c.492 0 .943-.073 1.353-.22.411-.148.744-.322.998-.523.259-.206.492-.454.697-.744a4.603 4.603 0 0 0 .717-1.393l1.085.388c-.085.29-.203.585-.355.885a5.195 5.195 0 0 1-.643.937c-.273.33-.585.621-.938.871-.348.25-.779.458-1.293.623a5.388 5.388 0 0 1-1.661.248zM346.702 90.023h-1.132v-9.685h-3.59v-1.059h8.306v1.059h-3.584v9.685z" fill="#112035"/><path d="M106.917 47.518c0-7.068-8.87-13.766-22.469-17.92 3.138-13.831 1.743-24.835-4.402-28.358C78.629.413 76.973.022 75.164.022v4.85c1.003 0 1.809.195 2.484.565 2.964 1.696 4.25 8.155 3.248 16.462-.24 2.045-.632 4.198-1.112 6.394-4.271-1.044-8.935-1.848-13.838-2.37-2.942-4.023-5.993-7.677-9.066-10.874 7.104-6.59 13.773-10.2 18.306-10.2V0c-5.993 0-13.839 4.262-21.771 11.657C45.482 4.306 37.636.087 31.644.087v4.85c4.51 0 11.201 3.588 18.306 10.134a102.76 102.76 0 0 0-9 10.852c-4.926.522-9.59 1.326-13.861 2.392a65.494 65.494 0 0 1-1.133-6.307c-1.025-8.307.24-14.766 3.181-16.484.654-.392 1.504-.566 2.506-.566V.108c-1.83 0-3.486.392-4.925 1.219-6.124 3.523-7.497 14.505-4.337 28.293C8.826 33.795 0 40.472 0 47.518c0 7.068 8.87 13.766 22.469 17.92-3.139 13.83-1.744 24.835 4.402 28.358 1.416.826 3.073 1.218 4.903 1.218 5.993 0 13.839-4.263 21.771-11.657 7.933 7.351 15.779 11.57 21.772 11.57 1.83 0 3.487-.392 4.925-1.218 6.124-3.523 7.497-14.505 4.337-28.293 13.511-4.154 22.338-10.852 22.338-17.898zM78.542 33.012c-.806 2.806-1.809 5.698-2.942 8.59-.893-1.74-1.83-3.479-2.855-5.219a117.597 117.597 0 0 0-3.138-5.089 98.523 98.523 0 0 1 8.935 1.718zm-9.981 23.161c-1.7 2.936-3.444 5.72-5.252 8.308-3.247.282-6.538.435-9.85.435-3.292 0-6.582-.153-9.808-.413a119.875 119.875 0 0 1-5.274-8.264 113.169 113.169 0 0 1-4.532-8.656 113.276 113.276 0 0 1 4.51-8.677c1.7-2.936 3.444-5.72 5.253-8.308 3.247-.282 6.538-.434 9.85-.434 3.291 0 6.582.152 9.807.413a119.814 119.814 0 0 1 5.274 8.264 113.24 113.24 0 0 1 4.533 8.655 121.689 121.689 0 0 1-4.511 8.677zm7.039-2.827a93.075 93.075 0 0 1 3.007 8.656 97.965 97.965 0 0 1-8.978 1.74 120.066 120.066 0 0 0 3.138-5.155c1.002-1.74 1.94-3.501 2.833-5.24zM53.502 76.551a89.71 89.71 0 0 1-6.059-6.96c1.962.087 3.967.153 5.994.153 2.048 0 4.075-.044 6.058-.153a84.932 84.932 0 0 1-5.993 6.96zM37.288 63.74a98.525 98.525 0 0 1-8.935-1.718c.806-2.805 1.808-5.698 2.942-8.59.893 1.74 1.83 3.48 2.855 5.22a143.89 143.89 0 0 0 3.138 5.088zm16.105-45.256a89.708 89.708 0 0 1 6.058 6.96 135.179 135.179 0 0 0-5.993-.153c-2.048 0-4.075.044-6.058.152a84.93 84.93 0 0 1 5.993-6.959zm-16.127 12.81c-1.068 1.674-2.136 3.392-3.138 5.154a122.73 122.73 0 0 0-2.833 5.219 93.095 93.095 0 0 1-3.008-8.656 106.029 106.029 0 0 1 8.98-1.718zM17.543 58.521C9.83 55.238 4.838 50.932 4.838 47.518c0-3.415 4.99-7.742 12.705-11.004 1.875-.805 3.923-1.523 6.037-2.197 1.242 4.263 2.877 8.7 4.904 13.244-2.006 4.524-3.618 8.938-4.839 13.18a66.318 66.318 0 0 1-6.102-2.219zm11.725 31.077c-2.964-1.696-4.25-8.155-3.247-16.463.24-2.044.632-4.197 1.111-6.394 4.272 1.044 8.936 1.849 13.839 2.37 2.942 4.024 5.993 7.678 9.066 10.875-7.105 6.589-13.773 10.199-18.306 10.199-.981-.022-1.81-.217-2.463-.587zm51.693-16.572c1.024 8.308-.24 14.767-3.182 16.485-.653.391-1.503.565-2.506.565-4.511 0-11.201-3.588-18.306-10.134a102.78 102.78 0 0 0 9-10.852c4.926-.522 9.59-1.326 13.86-2.392.502 2.196.894 4.306 1.134 6.328zm8.39-14.505c-1.874.805-3.922 1.522-6.036 2.197-1.242-4.263-2.877-8.7-4.904-13.245 2.005-4.523 3.618-8.938 4.838-13.178a69.234 69.234 0 0 1 6.124 2.218c7.715 3.284 12.706 7.59 12.706 11.004-.022 3.414-5.013 7.742-12.728 11.004z" fill="#FF4E75"/><path d="M53.437 57.456c5.5 0 9.959-4.45 9.959-9.938 0-5.489-4.46-9.939-9.96-9.939-5.5 0-9.959 4.45-9.959 9.939s4.46 9.938 9.96 9.938z" fill="#FF4E75"/><path d="M77.192 29.553a6.52 6.52 0 0 0-3.52-5.576c-3.97-2.07-10.496-3.105-19.572-3.11-9.077.005-15.602 1.04-19.573 3.11a6.52 6.52 0 0 0-3.52 5.576l-1.025 33.333a6.209 6.209 0 0 0 1.916 4.674c4.234 4.058 11.62 6.087 22.16 6.087 10.622 0 18.009-2.029 22.243-6.087a6.21 6.21 0 0 0 1.916-4.674l-1.025-33.333z" fill="#fff"/><ellipse opacity=".2" cx="53.585" cy="72.018" rx="21.863" ry="6.859" fill="#112035"/><path d="M77.192 28.696a6.52 6.52 0 0 0-3.52-5.577c-3.971-2.069-10.496-3.104-19.573-3.108-9.076.004-15.601 1.04-19.572 3.108a6.52 6.52 0 0 0-3.52 5.577l-1.025 33.333a6.209 6.209 0 0 0 1.916 4.673c4.234 4.059 11.62 6.088 22.16 6.088 10.622 0 18.009-2.03 22.242-6.088a6.21 6.21 0 0 0 1.917-4.673l-1.025-33.333z" fill="#fff"/><path fill-rule="evenodd" clip-rule="evenodd" d="M53.586 19.72c9.11.003 15.883 1.034 20.121 3.243a7.666 7.666 0 0 1 4.142 6.555l1.025 33.334a7.347 7.347 0 0 1-2.268 5.529c-4.572 4.382-12.354 6.415-23.063 6.415-10.627 0-18.408-2.034-22.978-6.415a7.345 7.345 0 0 1-2.269-5.53l1.025-33.333a7.667 7.667 0 0 1 4.141-6.555m20.124-3.244c-9.111.004-15.884 1.035-20.123 3.244l20.123-3.244zm0 2.297c-9.043.004-15.32 1.046-19.023 2.975a5.374 5.374 0 0 0-2.9 4.597L30.64 62.92a5.071 5.071 0 0 0 1.564 3.818c3.897 3.735 10.889 5.76 21.34 5.76 10.537 0 17.527-2.026 21.424-5.76a5.073 5.073 0 0 0 1.564-3.818l-1.025-33.333a5.373 5.373 0 0 0-2.898-4.597c-3.703-1.93-9.98-2.97-19.023-2.975z" fill="#15243A"/><path d="M35.882 27.693c.096 1.787 6.611 2.897 18.659 2.897 12.047 0 18.388-1.11 18.227-2.897-.162-1.788-4.372-4.047-18.442-4.047-14.071 0-18.54 2.26-18.444 4.047z" fill="#FFB2B4"/><path d="M49.276 47.648c.059.46-.323.837-.786.837-.464 0-.827-.379-.905-.835-.218-1.263-.962-1.949-2.109-1.949-1.025 0-1.738.699-1.951 1.949-.078.456-.441.835-.904.835-.464 0-.846-.377-.788-.837.274-2.16 1.623-3.617 3.643-3.617 2.135 0 3.522 1.436 3.8 3.617zM66.883 47.647c.059.46-.323.837-.786.837s-.827-.379-.905-.835c-.218-1.263-.962-1.949-2.11-1.949-1.024 0-1.737.698-1.95 1.949-.078.456-.441.835-.904.835-.464 0-.846-.377-.788-.837.274-2.16 1.623-3.617 3.643-3.617 2.135 0 3.522 1.436 3.8 3.617z" fill="#112035"/><path fill-rule="evenodd" clip-rule="evenodd" d="M61.773 55.66a.838.838 0 0 0-.76-.378c-2.776.187-4.935.283-6.417.283h-.006c-1.481 0-3.515-.095-6.043-.281a.85.85 0 0 0-.747.353c-.17.24-.2.552-.08.82 1.57 3.502 3.861 5.276 6.81 5.276h.075c2.95-.03 5.374-1.788 7.206-5.226a.832.832 0 0 0-.038-.846z" fill="#15243A"/><path fill-rule="evenodd" clip-rule="evenodd" d="M52.09 59.19c.46-.968 1.358-1.68 2.694-2.139 1.429-.49 2.705-.228 3.827.785a.751.751 0 0 1 .157.918c-.483.887-1.404 1.5-2.76 1.837-1.414.35-2.628.203-3.642-.443a.752.752 0 0 1-.276-.958z" fill="#FF7BAC"/></svg>