<svg width="24" height="24" viewBox="0 0 24 24" fill="none" xmlns="http://www.w3.org/2000/svg"><g clip-path="url(#clip0)"><mask id="a" maskUnits="userSpaceOnUse" x="1" y="0" width="22" height="24"><path d="M22.5 22.286c0 .947-.784 1.714-1.75 1.714H3.25c-.966 0-1.75-.767-1.75-1.714V5.143c0-.947.784-1.714 1.75-1.714H8.5C8.5 1.535 10.067 0 12 0s3.5 1.535 3.5 3.429h5.25c.966 0 1.75.767 1.75 1.714v6.146a2.669 2.669 0 00-.875-.146c-1.45 0-2.625 1.151-2.625 2.571 0 1.42 1.175 2.572 2.625 2.572.307 0 .601-.052.875-.147v6.147z" fill="#fff"/></mask><g mask="url(#a)"><path d="M28.5 20.5C28.5 26.851 23.351 32 17 32S5.5 26.851 5.5 20.5 10.649 9 17 9s11.5 5.149 11.5 11.5z" fill="#FFB2B4"/><path fill-rule="evenodd" clip-rule="evenodd" d="M17 30a9.5 9.5 0 100-19 9.5 9.5 0 000 19zm0 2c6.351 0 11.5-5.149 11.5-11.5S23.351 9 17 9 5.5 14.149 5.5 20.5 10.649 32 17 32z" fill="#112035"/><path fill-rule="evenodd" clip-rule="evenodd" d="M10.5 5.429h-7V22h17v-3.851c-1.989-.494-3.5-2.265-3.5-4.435 0-2.17 1.511-3.94 3.5-4.434V5.429h-7v-2C13.5 2.679 12.867 2 12 2s-1.5.678-1.5 1.429v2zm12 5.86a2.669 2.669 0 00-1.75 0c-1.02.353-1.75 1.306-1.75 2.425 0 1.12.73 2.072 1.75 2.425a2.669 2.669 0 001.75 0v6.147c0 .947-.784 1.714-1.75 1.714H3.25c-.966 0-1.75-.767-1.75-1.714V5.143c0-.947.784-1.714 1.75-1.714H8.5C8.5 1.535 10.067 0 12 0s3.5 1.535 3.5 3.429h5.25c.966 0 1.75.767 1.75 1.714v6.146z" fill="#112035"/></g></g><defs><clipPath id="clip0"><path fill="#fff" d="M0 0h24v24H0z"/></clipPath></defs></svg>