<svg width="24" height="24" viewBox="0 0 24 24" fill="none" xmlns="http://www.w3.org/2000/svg"><path d="M4 3a1 1 0 011-1h14a1 1 0 011 1v18a1 1 0 01-1 1H5a1 1 0 01-1-1V3z" fill="#fff"/><path fill-rule="evenodd" clip-rule="evenodd" d="M5 0h14a3 3 0 013 3v18a3 3 0 01-3 3H5a3 3 0 01-3-3V3a3 3 0 013-3zm0 2a1 1 0 00-1 1v18a1 1 0 001 1h14a1 1 0 001-1V3a1 1 0 00-1-1H5z" fill="#112035"/><path fill-rule="evenodd" clip-rule="evenodd" d="M6 13a1 1 0 011-1h10a1 1 0 110 2H7a1 1 0 01-1-1z" fill="#112035"/><path fill-rule="evenodd" clip-rule="evenodd" d="M6 9a1 1 0 011-1h6a1 1 0 110 2H7a1 1 0 01-1-1z" fill="#FFB2B4"/><path fill-rule="evenodd" clip-rule="evenodd" d="M6 17a1 1 0 011-1h10a1 1 0 110 2H7a1 1 0 01-1-1z" fill="#112035"/></svg>