<svg width="24" height="24" viewBox="0 0 24 24" fill="none" xmlns="http://www.w3.org/2000/svg"><g clip-path="url(#clip0)" stroke="#112035" stroke-width="2" stroke-linejoin="round"><path d="M14.434 15.913a6.488 6.488 0 004.54-6.248c-.01-.895.48-1.79 1.344-2.02.864-.231 1.766.283 1.852 1.173a9.725 9.725 0 01-6.897 10.224l.587 2.187c.196.731-.59 1.333-1.245.955l-5.576-3.22 3.219-5.575c.378-.655 1.358-.525 1.555.205l.621 2.319z" fill="#FFB2B4"/><path d="M9.566 8.097a6.488 6.488 0 00-4.54 6.248c.01.895-.48 1.789-1.344 2.02-.864.231-1.766-.283-1.852-1.173A9.725 9.725 0 018.727 4.968L8.14 2.781c-.196-.731.59-1.333 1.245-.955l5.576 3.22-3.219 5.575c-.378.655-1.358.525-1.555-.205l-.621-2.319z" fill="#fff"/></g><defs><clipPath id="clip0"><path fill="#fff" d="M0 0h24v24H0z"/></clipPath></defs></svg>