<svg
  width="100%"
  height="100%"
  viewBox="0 0 24 24"
  fill="none"
  xmlns="http://www.w3.org/2000/svg"
>
  <g fillRule="evenodd" clipRule="evenodd" fill="currentColor">
    <path
      d="M4.15 4.229a1 1 0 01.135 1.408A9.96 9.96 0 002 12a9.96 9.96 0 002.285 6.363 1 1 0 01-1.542 1.274A11.96 11.96 0 010 12c0-2.9 1.03-5.562 2.743-7.637A1 1 0 014.15 4.23zM19.85 4.229a1 1 0 011.407.134A11.96 11.96 0 0124 12c0 2.9-1.03 5.562-2.743 7.637a1 1 0 01-1.542-1.274A9.96 9.96 0 0022 12a9.96 9.96 0 00-2.285-6.363 1 1 0 01.134-1.408z"
    />
    <path
      d="M12 6a6 6 0 100 12 6 6 0 000-12zm-8 6a8 8 0 1116 0 8 8 0 01-16 0z"
    />
    <path
      d="M12 14a1 1 0 011 1v.01a1 1 0 11-2 0V15a1 1 0 011-1zM12 8a1 1 0 011 1v3a1 1 0 11-2 0V9a1 1 0 011-1z"
    />
  </g>
</svg>
