<svg
      width="100%"
      height="100%"
      viewBox="0 0 24 24"
      fill="none"
      xmlns="http://www.w3.org/2000/svg"
    >
      <rect x=".5" y="5" width="23" height="14" rx="2.5" fill="#fff" />
      <g fillRule="evenodd" clipRule="evenodd" fill="#000">
        <path d="M6.782 8.25c.039.366-.107.723-.323.99-.223.259-.577.464-.931.434-.046-.35.13-.723.331-.952.223-.266.608-.456.923-.472zm-.83 1.674c.23-.09.513-.2.826-.182.2.015.775.076 1.144.615l-.012.008c-.095.06-.67.434-.664 1.168.008.876.73 1.204.826 1.248l.01.005-.001.007c-.02.06-.144.456-.428.866-.26.38-.53.752-.96.76a1.08 1.08 0 01-.48-.115c-.149-.063-.304-.129-.547-.129a1.35 1.35 0 00-.575.133c-.134.057-.265.11-.446.118-.415.015-.73-.403-.99-.782-.537-.767-.944-2.164-.391-3.105.268-.47.76-.766 1.289-.774.23-.004.452.082.645.157.147.058.277.109.383.109.096 0 .222-.05.37-.107zM10.928 8.684c1.12 0 1.9.762 1.9 1.87 0 1.114-.796 1.88-1.928 1.88H9.659v1.945h-.896V8.684h2.165zm-1.27 3.007h1.03c.78 0 1.224-.414 1.224-1.132s-.444-1.129-1.22-1.129H9.658v2.261zm3.405 1.508c0-.726.564-1.172 1.564-1.227l1.153-.068v-.32c0-.461-.316-.737-.844-.737-.5 0-.813.237-.889.607h-.816c.048-.75.696-1.302 1.736-1.302 1.021 0 1.673.533 1.673 1.366v2.86h-.828v-.682h-.02c-.244.462-.777.754-1.329.754-.824 0-1.4-.505-1.4-1.251zm2.717-.375v-.328l-1.037.063c-.516.036-.808.261-.808.616 0 .363.304.6.768.6.605 0 1.077-.41 1.077-.951zm1.642 2.391v.69c.064.013.28.02.352.02.873 0 1.29-.323 1.65-1.33L21 10.228h-.912l-1.065 3.378h-.016l-1.065-3.378h-.936l1.52 4.156-.028.095c-.021.07-.047.156-.047.161-.132.426-.349.592-.749.592-.072 0-.216 0-.28-.016z" />
      </g>
      <rect x=".5" y="5" width="23" height="14" rx="2.5" stroke="#AEAEAE" />
    </svg>