<svg
  width="100%"
  height="100%"
  viewBox="0 0 24 24"
  fill="none"
  xmlns="http://www.w3.org/2000/svg"
>
  <path
    d="M18.653 11.388L15.539 4.38H17a1 1 0 000-2h-3a.999.999 0 00-.913 1.406l1.152 2.594H5.512L4.92 4.989a1 1 0 00-.92-.61H2a1 1 0 000 2h1.338l2.126 5.003A5.504 5.504 0 000 16.88c0 3.033 2.467 5.5 5.5 5.5s5.5-2.467 5.5-5.5a5.47 5.47 0 00-.598-2.482l4.866-5.705 1.345 3.027C14.508 12.493 13 14.51 13 16.88c0 3.033 2.467 5.5 5.5 5.5s5.5-2.467 5.5-5.5a5.502 5.502 0 00-5.347-5.492zM5.5 20.38c-1.93 0-3.5-1.57-3.5-3.5s1.57-3.5 3.5-3.5c.457 0 .892.094 1.293.254l.054.017A3.505 3.505 0 019 16.88c0 1.93-1.57 3.5-3.5 3.5zm3.653-7.6a5.505 5.505 0 00-1.286-.857L6.362 8.38h6.545l-3.754 4.4zm9.347 7.6c-1.93 0-3.5-1.57-3.5-3.5s1.57-3.5 3.5-3.5 3.5 1.57 3.5 3.5-1.57 3.5-3.5 3.5z"
    fill="currentColor"
  />
</svg>
