<svg
  width="100%"
  height="100%"
  viewBox="0 0 24 24"
  fill="none"
  xmlns="http://www.w3.org/2000/svg"
>
  <g clipPath="url(#breakdownAlt)">
    <path
      fillRule="evenodd"
      clipRule="evenodd"
      d="M23.235 4.498a1 1 0 00-1.609-.278l-3.372 3.368-1.396-.465-.465-1.392 3.361-3.356a1 1 0 00-.281-1.612c-2.615-1.234-5.776-.954-8.061.712-2.525 1.843-3.724 4.898-3.15 7.913l-6.847 6.835c-1.762 1.76-1.896 4.521-.303 6.288a4.443 4.443 0 003.327 1.482 4.498 4.498 0 003.165-1.308l6.987-6.978a7.976 7.976 0 007.095-2.179 7.94 7.94 0 001.549-9.03zm-2.962 7.616a5.973 5.973 0 01-5.741 1.531.993.993 0 00-.965.258L6.19 21.27a2.423 2.423 0 01-1.814.723 2.458 2.458 0 01-1.777-.82c-.864-.958-.761-2.543.231-3.532l7.237-7.227a1 1 0 00.259-.966c-.638-2.392.252-4.887 2.267-6.356.991-.724 2.209-1.094 3.441-1.094.387 0 .774.036 1.158.11L14.54 4.754a1 1 0 00-.241 1.024l.819 2.453c.1.3.334.533.633.633l2.456.817c.359.118.754.025 1.022-.24l2.669-2.667a5.934 5.934 0 01-1.625 5.34zM4.01 19.004c0-.554.447-1.006 1-1.006.553 0 1 .442 1 .995v.01a1 1 0 11-2 0z"
      fill="currentColor"
    />
  </g>
  <defs>
    <clipPath id="breakdownAlt">
      <path fill="#fff" d="M0 0h24v24H0z" />
    </clipPath>
  </defs>
</svg>
