<svg
  width="100%"
  height="100%"
  viewBox="0 0 24 24"
  fill="none"
  xmlns="http://www.w3.org/2000/svg"
>
  <g
    fillRule="evenodd"
    clipRule="evenodd"
    fill="currentColor"
    clipPath="url(#breakdown)"
  >
    <path
      d="M16.257 1.329a4.535 4.535 0 116.414 6.414L20.93 9.485a1 1 0 11-1.414-1.414l1.742-1.742a2.535 2.535 0 10-3.586-3.586L14.905 5.51a1 1 0 11-1.414-1.414l2.766-2.766zM6.328 1.145L16.683 11.51a6.276 6.276 0 016.14 2.515c1.368 1.875 1.523 4.359.566 6.383a1 1 0 01-1.611.28l-2.454-2.456-.808.27-.27.81 2.463 2.465a1 1 0 01-.277 1.61 6.283 6.283 0 01-8.903-6.72L1.067 6.195A3.649 3.649 0 011.344.788c1.524-1.246 3.695-.932 4.984.357zM2.61 2.336a1.649 1.649 0 00-.128 2.445l10.846 10.857a1 1 0 01.26.964 4.287 4.287 0 001.105 4.144M2.61 2.336c.618-.505 1.635-.445 2.303.223l10.74 10.75a1 1 0 00.965.26 4.28 4.28 0 014.59 1.636 4.23 4.23 0 01.775 2.858l-1.681-1.683a1 1 0 00-1.025-.241l-1.869.623a1 1 0 00-.632.633l-.623 1.871a1 1 0 00.242 1.023l1.693 1.695a4.268 4.268 0 01-3.395-1.238"
    />
    <path
      d="M4.186 14.41a1 1 0 01.781-.375h1a1 1 0 110 2h-.52l-3.14 3.926 1.733 1.733 3.926-3.14v-.52a1 1 0 112 0v1a1 1 0 01-.375.78L4.66 23.76a1.1 1.1 0 01-1.465-.08L.323 20.804a1.1 1.1 0 01-.08-1.465l3.943-4.93z"
    />
  </g>
  <defs>
    <clipPath id="breakdown">
      <path fill="#fff" d="M0 0h24v24H0z" />
    </clipPath>
  </defs>
</svg>
