<svg
  width="100%"
  height="100%"
  viewBox="0 0 24 24"
  fill="none"
  xmlns="http://www.w3.org/2000/svg"
>
  <path
    d="M21 2h-2V1a1 1 0 00-2 0v1H7V1a1 1 0 00-2 0v1H3C1.346 2 0 3.346 0 5v16c0 1.654 1.346 3 3 3h18c1.654 0 3-1.346 3-3V5c0-1.654-1.346-3-3-3zm1 19c0 .552-.449 1-1 1H3c-.552 0-1-.449-1-1V11h20v10zm0-12H2V5c0-.552.449-1 1-1h2v2a1 1 0 002 0V4h10v2a1 1 0 002 0V4h2c.552 0 1 .449 1 1v4zm-5.5 11c1.93 0 3.5-1.57 3.5-3.5S18.43 13 16.5 13 13 14.57 13 16.5s1.57 3.5 3.5 3.5zm0-5c.827 0 1.5.673 1.5 1.5s-.673 1.5-1.5 1.5-1.5-.673-1.5-1.5.673-1.5 1.5-1.5z"
    fill="currentColor"
  />
</svg>
