<svg
  width="100%"
  height="100%"
  viewBox="0 0 24 24"
  fill="none"
  xmlns="http://www.w3.org/2000/svg"
>
  <path
    d="M8 16.995c.553 0 1-.453 1-1.005a1 1 0 10-2 0V16c0 .552.447.995 1 .995zM21 3H3C1.346 3 0 4.346 0 6v12c0 1.654 1.346 3 3 3h18c1.654 0 3-1.346 3-3V6c0-1.654-1.346-3-3-3zm1 15c0 .551-.448 1-1 1H3c-.552 0-1-.449-1-1v-7h20v7zm0-9H2V6c0-.551.448-1 1-1h18c.552 0 1 .449 1 1v3zM5 16.995c.553 0 1-.453 1-1.005a1 1 0 10-2 0V16c0 .552.447.995 1 .995z"
    fill="currentColor"
  />
</svg>
