<svg
  width="100%"
  height="100%"
  viewBox="0 0 25 28"
  fill="none"
  xmlns="http://www.w3.org/2000/svg"
>
  <path
    fillRule="evenodd"
    clipRule="evenodd"
    d="M23.952 4.18625C23.8529 3.97871 23.6595 3.83208 23.4329 3.79312C23.2099 3.75275 22.9755 3.82712 22.8126 3.98933L20.4247 6.375L19.4361 6.04562L19.1068 5.05962L21.4869 2.68246C21.6491 2.51954 21.7235 2.2865 21.6838 2.05983C21.6441 1.83316 21.4968 1.63837 21.2879 1.54062C19.4361 0.66654 17.1977 0.864873 15.5795 2.04496C13.7915 3.35042 12.9424 5.51437 13.3489 7.65L8.50017 12.4915C7.25241 13.7381 7.15752 15.6938 8.2856 16.9455C8.87478 17.5985 9.68278 17.9711 10.5595 17.9938C10.5871 17.9952 10.6147 17.9952 10.6416 17.9952C11.4779 17.9952 12.2902 17.6602 12.8829 17.0687L17.8308 12.126C19.6457 12.4688 21.5408 11.8957 22.8551 10.5825C24.5369 8.90375 24.9774 6.33321 23.952 4.18625ZM21.8545 9.58091C20.7986 10.6363 19.2393 11.0514 17.789 10.6654C17.5432 10.5981 17.2848 10.6696 17.1056 10.8481L11.8816 16.0657C11.5396 16.4085 11.0807 16.5963 10.597 16.5778C10.1112 16.5651 9.66508 16.359 9.33862 15.997C8.72678 15.3184 8.79972 14.1957 9.5022 13.4952L14.6271 8.37604C14.8055 8.19683 14.8764 7.93617 14.8105 7.69179C14.3587 5.99746 14.9889 4.23017 16.4159 3.18962C17.1176 2.67679 17.9802 2.41471 18.8526 2.41471C19.1267 2.41471 19.4007 2.44021 19.6727 2.49262L17.7946 4.36758C17.6049 4.55812 17.539 4.83862 17.624 5.09292L18.204 6.83046C18.2748 7.04225 18.4405 7.208 18.6522 7.27883L20.3914 7.85754C20.6457 7.94112 20.9254 7.87525 21.1152 7.68683L23.0052 5.79842C23.2708 7.15062 22.8586 8.57862 21.8545 9.58091Z"
    fill="currentColor"
    stroke="currentColor"
    strokeWidth="0.5"
  />
  <path
    fillRule="evenodd"
    clipRule="evenodd"
    d="M13.8873 4H8.49793C5.74164 4 3.49922 6.243 3.49922 9V14.424C1.73668 15.198 0.5 16.955 0.5 19V23C0.5 23.552 0.947884 24 1.49974 24H2.49948V27C2.49948 27.552 2.94737 28 3.49922 28C4.05108 28 4.49896 27.552 4.49896 27V24H20.4948V27C20.4948 27.552 20.9427 28 21.4946 28C22.0464 28 22.4943 27.552 22.4943 27V24H23.494C24.0459 24 24.4938 23.552 24.4938 23V19C24.4938 16.955 23.2571 15.198 21.4946 14.424V11.5802C20.8718 11.9055 20.1925 12.1118 19.4951 12.189V14H15.9548L13.9527 16H19.4951C21.1487 16 22.4943 17.346 22.4943 19V22H2.49948V19C2.49948 17.346 3.84513 16 5.49871 16H7.70533C7.46171 15.3662 7.43398 14.6639 7.61685 14H5.49871V9C5.49871 7.346 6.84436 6 8.49793 6H13.2803C13.3549 5.29962 13.5612 4.62184 13.8873 4ZM4.49896 19C4.49896 18.448 4.94696 17.995 5.49896 17.995C6.05096 17.995 6.49896 18.438 6.49896 18.99V19C6.49896 19.552 6.05096 20 5.49896 20C4.94696 20 4.49896 19.552 4.49896 19ZM19.4953 17.995C18.9433 17.995 18.4953 18.448 18.4953 19C18.4953 19.552 18.9433 20 19.4953 20C20.0473 20 20.4953 19.552 20.4953 19V18.99C20.4953 18.438 20.0473 17.995 19.4953 17.995Z"
    fill="currentColor"
  />
</svg>
