<svg
      width="100%"
      height="100%"
      viewBox="0 0 24 24"
      fill="none"
      xmlns="http://www.w3.org/2000/svg"
    >
      <path
        d="M8.567 2.153c1.468-2.87 5.398-2.87 6.866 0l8.1 15.84C24.923 20.711 23.043 24 20.1 24H3.9C.957 24-.923 20.711.467 17.993l8.1-15.84z"
        fill="#FFB2B4"
      />
      <path
        fillRule="evenodd"
        clipRule="evenodd"
        d="M21.817 18.957l-8.1-15.84a1.907 1.907 0 00-3.434 0l-8.1 15.84c-.694 1.359.245 3.003 1.717 3.003h16.2c1.472 0 2.412-1.644 1.716-3.003zM15.433 2.153c-1.468-2.87-5.398-2.87-6.866 0l-8.1 15.84C-.923 20.711.957 24 3.9 24h16.2c2.943 0 4.823-3.289 3.433-6.007l-8.1-15.84z"
        fill="#112035"
      />
      <path
        d="M7.43 12.28c1.76-3.959 7.38-3.959 9.14 0l.305.69c1.47 3.306-.95 7.03-4.569 7.03h-.612c-3.618 0-6.039-3.724-4.57-7.03l.307-.69z"
        fill="#fff"
      />
      <path
        fillRule="evenodd"
        clipRule="evenodd"
        d="M15.048 13.782l-.307-.69c-1.055-2.375-4.427-2.375-5.482 0l-.307.69C8.071 15.765 9.522 18 11.694 18h.612c2.171 0 3.623-2.235 2.742-4.218zm1.521-1.502c-1.76-3.959-7.378-3.959-9.138 0l-.306.69c-1.47 3.306.95 7.03 4.569 7.03h.612c3.619 0 6.039-3.724 4.57-7.03l-.307-.69z"
        fill="#112035"
      />
    </svg>