<svg
  width="100%"
  height="100%"
  viewBox="0 0 24 24"
  fill="none"
  xmlns="http://www.w3.org/2000/svg"
>
  <path
    fillRule="evenodd"
    clipRule="evenodd"
    d="M12.022 1l9.355 7.512c.394.316.623.795.623 1.3v9.938c0 .69-.56 1.25-1.25 1.25H3.25C2.56 21 2 20.44 2 19.75V9.814c0-.507.23-.986.626-1.302L12.022 1zm7.646 10.207a.975.975 0 00.457-.825v-.004a.975.975 0 00-.364-.759l-7.742-6.216-7.778 6.219a.973.973 0 00.091 1.586l7.004 4.377a1.256 1.256 0 001.326 0l7.005-4.378z"
    fill="currentColor"
  />
</svg>
