<svg
      width="100%"
      height="100%"
      viewBox="0 0 24 24"
      fill="none"
      xmlns="http://www.w3.org/2000/svg"
    >
      <path
        fillRule="evenodd"
        clipRule="evenodd"
        d="M14.123 9.332c.905.604 1.15 1.83.546 2.737L8.546 20.12a1.966 1.966 0 01-2.73.548l-3.939-2.631a1.978 1.978 0 01-.546-2.738 1.966 1.966 0 012.73-.548l2.3 1.537 5.031-6.408a1.966 1.966 0 012.73-.548z"
        fill="#FFB2B4"
        stroke="#112035"
        strokeWidth="2"
        strokeMiterlimit="10"
        strokeLinecap="round"
        strokeLinejoin="round"
      />
      <path
        fillRule="evenodd"
        clipRule="evenodd"
        d="M7 2a1 1 0 00-1 1v3a1 1 0 01-2 0V3a3 3 0 013-3h10a1 1 0 01.707.293l6 6A1 1 0 0124 7v14a3 3 0 01-3 3h-5a1 1 0 110-2h5a1 1 0 001-1V7.414L16.586 2H7z"
        fill="#112035"
      />
    </svg>