<svg
  width="100%"
  height="100%"
  viewBox="0 0 24 24"
  fill="none"
  xmlns="http://www.w3.org/2000/svg"
>
  <path
    fillRule="evenodd"
    clipRule="evenodd"
    d="M11.3668 0.226043C11.7351 -0.0753476 12.2649 -0.0753476 12.6332 0.226043L23.6332 9.22604C23.8654 9.41597 24 9.70007 24 10V21C24 22.6573 22.6573 24 21 24H3C1.34272 24 0 22.6573 0 21V10C0 9.70007 0.134627 9.41597 0.366762 9.22604L11.3668 0.226043ZM2 10.4739V21C2 21.5527 2.44728 22 3 22H21C21.5527 22 22 21.5527 22 21V10.4739L12 2.29206L2 10.4739Z"
    fill="currentColor"
  />
  <path
    fillRule="evenodd"
    clipRule="evenodd"
    d="M8.70711 11.2929C9.09763 10.9024 9.7308 10.9024 10.1213 11.2929L15.7782 16.9498C16.1687 17.3403 16.1687 17.9735 15.7782 18.364C15.3877 18.7545 14.7545 18.7545 14.364 18.364L8.70711 12.7071C8.31658 12.3166 8.31658 11.6834 8.70711 11.2929Z"
    fill="currentColor"
  />
  <path
    fillRule="evenodd"
    clipRule="evenodd"
    d="M8.29289 18.364C7.90237 17.9734 7.90237 17.3403 8.29289 16.9498L13.9497 11.2929C14.3403 10.9024 14.9734 10.9024 15.364 11.2929C15.7545 11.6834 15.7545 12.3166 15.364 12.7071L9.70711 18.364C9.31658 18.7545 8.68342 18.7545 8.29289 18.364Z"
    fill="currentColor"
  />
</svg>
