<svg
  width="100%"
  height="100%"
  viewBox="0 0 25 25"
  fill="none"
  xmlns="http://www.w3.org/2000/svg"
>
  <path
    d="M21.79.005L3.104.088a3.114 3.114 0 00-3.1 3.127L.088 21.9A3.114 3.114 0 003.216 25l18.684-.082a3.114 3.114 0 003.1-3.128l-.083-18.684a3.114 3.114 0 00-3.128-3.1zm-6.001 4.594a.831.831 0 011.66-.008l.05 11.095a.83.83 0 01-1.661.007L15.788 4.6zm-4.154-.402a.83.83 0 011.661-.007l.054 12.04a.83.83 0 01-1.662.008l-.053-12.041zm-4.15.439a.83.83 0 011.66-.008l.05 11.095a.83.83 0 11-1.66.007l-.05-11.094zM3.341 6.315A.83.83 0 115 6.307l.033 7.47a.831.831 0 01-1.66.007l-.033-7.47zM21.376 18.9c-.128.111-3.193 2.706-8.833 2.73-5.64.026-8.727-2.541-8.856-2.651a.83.83 0 011.072-1.267c.049.04 2.806 2.28 7.776 2.258 5.032-.022 7.727-2.303 7.753-2.326a.83.83 0 011.17.085.83.83 0 01-.082 1.171zm.266-5.198a.831.831 0 01-1.66.007l-.034-7.469a.83.83 0 111.661-.007l.033 7.469z"
    fill="currentColor"
  />
</svg>
