<svg
      width="100%"
      height="100%"
      viewBox="0 0 24 24"
      fill="none"
      xmlns="http://www.w3.org/2000/svg"
    >
      <g fillRule="evenodd" clipRule="evenodd">
        <path
          d="M0 9.5C0 4.254 4.254 0 9.5 0h5a9.5 9.5 0 010 19h-.197l-5.748 3.832A1 1 0 017 22v-3.34C2.968 17.56 0 13.882 0 9.5zM9.5 2A7.5 7.5 0 002 9.5c0 3.687 2.665 6.749 6.176 7.376A1 1 0 019 17.86v2.271l4.445-2.963A1 1 0 0114 17h.5a7.5 7.5 0 000-15h-5z"
          fill="#112035"
        />
        <g fill="#FFB2B4">
          <path d="M7 9a1 1 0 011 1v.01a1 1 0 11-2 0V10a1 1 0 011-1zM12 9a1 1 0 011 1v.01a1 1 0 11-2 0V10a1 1 0 011-1zM17 9a1 1 0 011 1v.01a1 1 0 11-2 0V10a1 1 0 011-1z" />
        </g>
      </g>
    </svg>