<svg
      width="100%"
      height="100%"
      viewBox="0 0 24 24"
      fill="none"
      xmlns="http://www.w3.org/2000/svg"
    >
      <path fill="#FFB2B4" d="M8 19h8v3H8zM9 11h6v3H9z" />
      <path
        d="M12 5.995c.553 0 1-.453 1-1.005a1 1 0 10-2 0V5c0 .552.447.995 1 .995zM19 3h-2.432A4.99 4.99 0 0012 0a4.99 4.99 0 00-4.568 3H5C3.346 3 2 4.346 2 6v15c0 1.654 1.346 3 3 3h14c1.654 0 3-1.346 3-3V6c0-1.654-1.346-3-3-3zm-3 19H8v-.161C8 20.3 9.832 19 12 19s4 1.3 4 2.839V22zm4-1a1 1 0 01-1 1h-1v-.161C18 19.171 15.309 17 12 17s-6 2.171-6 4.839V22H5a1 1 0 01-1-1V6c0-.551.448-1 1-1h3.142a1 1 0 00.968-.749A2.993 2.993 0 0112 2c1.358 0 2.547.926 2.891 2.251a.998.998 0 00.967.749H19c.552 0 1 .449 1 1v15zM12 9c-1.93 0-3.5 1.57-3.5 3.5S10.07 16 12 16s3.5-1.57 3.5-3.5S13.93 9 12 9zm0 5c-.827 0-1.5-.673-1.5-1.5S11.173 11 12 11s1.5.673 1.5 1.5S12.827 14 12 14z"
        fill="#112035"
      />
    </svg>