<svg
      width="100%"
      height="100%"
      viewBox="0 0 24 24"
      fill="none"
      xmlns="http://www.w3.org/2000/svg"
    >
      <path
        d="M18.291.244l4.823 4.822-4.292 4.292L14 4.536 18.29.244z"
        fill="#FFB2B4"
      />
      <path
        d="M22.422 1.578a4.543 4.543 0 00-6.414 0l-13.5 13.5a1.006 1.006 0 00-.256.436L.287 22.479a1.001 1.001 0 001.234 1.235l6.965-1.965c.165-.047.314-.135.436-.256l13.5-13.5a4.544 4.544 0 000-6.415zM7.692 19.894l-4.995 1.409 1.409-4.995 9.644-9.644 3.586 3.586-9.644 9.644zM21.008 6.578L18.75 8.836 15.164 5.25l2.258-2.258a2.54 2.54 0 013.586 0 2.54 2.54 0 010 3.586z"
        fill="#112035"
      />
    </svg>