<svg
  width="100%"
  height="100%"
  viewBox="0 0 24 24"
  fill="none"
  xmlns="http://www.w3.org/2000/svg"
>
  <path
    fillRule="evenodd"
    clipRule="evenodd"
    d="M20.485 3.515c-4.678-4.678-12.292-4.679-16.971 0-4.678 4.679-4.678 12.292 0 16.971a11.965 11.965 0 008.485 3.509 11.96 11.96 0 008.485-3.509c4.68-4.679 4.68-12.293.001-16.971zM16 11H8a1 1 0 000 2h8a1 1 0 000-2zM4.928 19.071c3.899 3.899 10.244 3.898 14.143 0 3.899-3.899 3.899-10.243 0-14.142A9.97 9.97 0 0012 2.005a9.972 9.972 0 00-7.072 2.923c-3.898 3.899-3.898 10.244 0 14.143z"
    fill="currentColor"
  />
</svg>
