<svg
  width="100%"
  height="100%"
  viewBox="0 0 24 24"
  fill="none"
  xmlns="http://www.w3.org/2000/svg"
>
  <path
    fillRule="evenodd"
    clipRule="evenodd"
    d="M.293.293a.999.999 0 011.414 0l22 22a1 1 0 11-1.414 1.414l-22-22a.999.999 0 010-1.414zM21.776 2.2c-3.119-.592-6.616.248-10.002 1.06l-.014.004-.553.133a1 1 0 00.465 1.946l.556-.133c3.184-.766 6.477-1.558 9.174-1.044.29.054.598.45.598.77v10.993a1 1 0 102 0V4.935c0-1.274-.997-2.5-2.224-2.735zM12.327 18.66l-.553.133-.019.004c-3.179.764-6.463 1.553-9.159 1.038-.339-.065-.596-.396-.596-.77V8.072a1 1 0 10-2 0v10.994c0 1.339.935 2.489 2.223 2.734.734.14 1.49.2 2.26.2 2.501 0 5.16-.639 7.751-1.261l.009-.002.55-.132a1 1 0 10-.466-1.945z"
    fill="currentColor"
  />
</svg>
