<svg
  width="100%"
  height="100%"
  viewBox="0 0 25 25"
  fill="none"
  xmlns="http://www.w3.org/2000/svg"
>
  <g clipPath="url(#onfido)">
    <path
      fillRule="evenodd"
      clipRule="evenodd"
      d="M17.878 3.878c.25-.151.493-.311.728-.478a.325.325 0 00.05-.487A25.493 25.493 0 0016.557.932a3.242 3.242 0 00-2.801-.685 25.487 25.487 0 00-3.048.888 23.349 23.349 0 00-4.84 2.414.218.218 0 00.01.369 11.656 11.656 0 0012-.04zM3.288 6.091a11.55 11.55 0 01.52 12.685.22.22 0 01-.37.01 23.186 23.186 0 01-2.423-4.824 25.265 25.265 0 01-.89-3.037A3.215 3.215 0 01.81 8.133 25.567 25.567 0 012.799 6.04a.328.328 0 01.489.05zm5.236 4.246a4.334 4.334 0 001.725 5.895 4.364 4.364 0 005.915-1.719 4.334 4.334 0 00-1.725-5.895 4.365 4.365 0 00-5.915 1.719zM6.716 20.972c-.25.152-.493.312-.728.479a.325.325 0 00-.05.487 25.53 25.53 0 002.098 1.98 3.242 3.242 0 002.802.685 25.419 25.419 0 003.048-.887 23.355 23.355 0 004.84-2.415.218.218 0 00-.01-.368 11.656 11.656 0 00-12 .04zM21.4 18.76a11.55 11.55 0 01-.52-12.685.22.22 0 01.37-.01 23.19 23.19 0 012.423 4.824c.354.972.652 1.989.89 3.037a3.215 3.215 0 01-.686 2.792 25.557 25.557 0 01-1.988 2.091.327.327 0 01-.489-.049z"
      fill="currentColor"
    />
  </g>
  <defs>
    <clipPath id="onfido">
      <path
        fill="#fff"
        transform="rotate(-.254 24.79 .055) scale(1.04111)"
        d="M0 0h23.814v23.814H0z"
      />
    </clipPath>
  </defs>
</svg>
