<svg
  width="100%"
  height="100%"
  viewBox="0 0 24 24"
  fill="none"
  xmlns="http://www.w3.org/2000/svg"
>
  <path
    d="M21.707 7.293l-7-7A.996.996 0 0014 0H5C3.346 0 2 1.346 2 3v18c0 1.654 1.346 3 3 3h14c1.654 0 3-1.346 3-3V8a.996.996 0 00-.293-.707zM20 21a1 1 0 01-1 1H5a1 1 0 01-1-1V3a1 1 0 011-1h8.586L20 8.414V21zm-10-9v1H9a1 1 0 100 2h1v1H9a1 1 0 100 2h5a1 1 0 100-2h-2v-1h1a1 1 0 100-2h-1v-1a1 1 0 011.867-.498 1 1 0 101.73-1.004A3.011 3.011 0 0013 9c-1.654 0-3 1.346-3 3z"
    fill="currentColor"
  />
</svg>
