<svg
  width="100%"
  height="100%"
  viewBox="0 0 24 24"
  fill="none"
  xmlns="http://www.w3.org/2000/svg"
>
  <g fill="currentColor">
    <path
      fillRule="evenodd"
      clipRule="evenodd"
      d="M12 22c5.523 0 10-4.477 10-10S17.523 2 12 2 2 6.477 2 12s4.477 10 10 10zm12-10c0 6.627-5.373 12-12 12S0 18.627 0 12 5.373 0 12 0s12 5.373 12 12z"
    />
    <path
      d="M17 14.812c0 .935-.289 1.7-.867 2.295-.573.595-1.318.893-2.235.893H8v-1.609a3.746 3.746 0 001.368-1.107c.379-.482.568-.999.568-1.55 0-.221-.03-.48-.09-.775H8.075v-1.535H9.33c-.32-.841-.479-1.513-.479-2.014 0-.502.1-.967.3-1.395a3.23 3.23 0 01.814-1.078c.344-.295.74-.524 1.189-.686.453-.167.929-.251 1.427-.251.688 0 1.308.13 1.861.391.559.26 1 .632 1.324 1.115.323.477.488 1.025.493 1.645l-1.831.31a1.74 1.74 0 00-.516-1.24c-.33-.34-.765-.509-1.308-.509-.514 0-.945.165-1.293.495-.344.33-.516.747-.516 1.254 0 .207.03.436.09.687.06.25.114.45.164.597.055.148.144.374.269.68h3.311v1.534h-2.803c.035.232.053.43.053.598 0 1.112-.489 2.035-1.466 2.768h3.155c.513 0 .912-.17 1.196-.51.284-.339.426-.725.426-1.158l1.809.155z"
    />
  </g>
</svg>
