<svg
  width="100%"
  height="100%"
  viewBox="0 0 24 24"
  fill="none"
  xmlns="http://www.w3.org/2000/svg"
>
  <g fill="currentColor">
    <path
      d="M13.986.095c-2.872.51-5.382 1.978-7.829 4.616-1.893 2.042-2.786 3.467-3.786 6.084-.638 1.659-.766 2.297-.851 4.19-.149 3.276.532 5.489 2.127 6.957l.51.489 1-1.447c1.596-2.255 2.064-3.382 2.213-5.34l.128-1.722H6.54c-1.106 0-1.297-.128-1-.66.15-.298.447-.404 1.043-.404h.85V10.093l-.871-.553c-1.107-.681-.851-1.192.276-.51l.745.425.255-.851c.298-.979 1.106-2.021 1.957-2.447.808-.425 2.319-.404 2.872.064.957.766 1.042 1.638.319 3-.34.638-1.766 1.297-2.893 1.361l-.957.042v2.234h1.914c1.191 0 1.915.085 1.915.234 0 .383-1.426.83-2.66.83h-1.17v1.106c0 1.064-.17 2.02-.51 3.085-.149.489-.149.489 2.255.489 1.595 0 2.51-.085 2.68-.256.468-.468.298.575-.191 1.192-.426.553-.447.553-3.361.553H7.072l-.83.915c-.978 1.106-1.574 1.829-1.574 1.935 0 .043.51.298 1.107.553 1.446.617 3.999.681 5.7.128 3.851-1.255 7.318-4.425 9.36-8.53 1.298-2.596 1.766-4.489 1.745-7.02-.021-3.787-1.723-6.595-4.744-7.722-.85-.34-2.744-.447-3.85-.255z"
    />
    <path
      d="M10.007 7.263c-.404.34-.851 1.553-.872 2.382 0 .49 2.042.192 2.659-.404.574-.553.723-1.638.276-2.085-.383-.383-1.553-.319-2.063.107z"
    />
  </g>
</svg>
