<svg
  width="100%"
  height="100%"
  viewBox="0 0 24 24"
  fill="none"
  xmlns="http://www.w3.org/2000/svg"
>
  <g fillRule="evenodd" clipRule="evenodd" fill="currentColor">
    <path
      d="M3 5a1 1 0 00-1 1v12a1 1 0 001 1h18a1 1 0 001-1V6a1 1 0 00-1-1H3zM0 6a3 3 0 013-3h18a3 3 0 013 3v12a3 3 0 01-3 3H3a3 3 0 01-3-3V6z"
    />
    <path
      d="M12.243 9.256a.75.75 0 01-.07 1.058L10.245 12l1.926 1.686a.75.75 0 11-.987 1.128l-2.572-2.25a.75.75 0 010-1.128l2.572-2.25a.75.75 0 011.058.07z"
    />
    <path
      d="M8.357 12a.75.75 0 01.75-.75h5.786a.75.75 0 010 1.5H9.107a.75.75 0 01-.75-.75z"
    />
  </g>
</svg>
