<svg width="100%" height="100%" fill="none" viewBox="0 0 24 24">
  <path
    d="M8 16.995c.553 0 1-.453 1-1.005a1 1 0 1 0-2 0V16c0 .552.447.995 1 .995ZM21 3H3C1.346 3 0 4.346 0 6v12c0 1.654 1.346 3 3 3h18c1.654 0 3-1.346 3-3V6c0-1.654-1.346-3-3-3Zm1 15c0 .551-.448 1-1 1H3c-.552 0-1-.449-1-1v-7h20v7Zm0-9H2V6c0-.551.448-1 1-1h18c.552 0 1 .449 1 1v3ZM5 16.995c.553 0 1-.453 1-1.005a1 1 0 1 0-2 0V16c0 .552.447.995 1 .995Z"
    fill="currentColor"
  />
  <rect x="12" y="12" width="12" height="12" rx="6" fill="currentColor" />
  <path
    d="M18.917 17h2.333v-2.333"
    stroke="#fff"
    strokeMiterlimit="10"
    strokeLinecap="round"
    strokeLinejoin="round"
  />
  <path
    d="M14.584 17c.5-1.366 1.748-2.333 3.208-2.333 1.46 0 2.707.967 3.208 2.333M16.917 19h-2.334v2.333"
    stroke="#fff"
    strokeMiterlimit="10"
    strokeLinecap="round"
    strokeLinejoin="round"
  />
  <path
    d="M21.25 19c-.5 1.366-1.748 2.333-3.208 2.333-1.46 0-2.708-.967-3.209-2.333"
    stroke="#fff"
    strokeMiterlimit="10"
    strokeLinecap="round"
    strokeLinejoin="round"
  />
</svg>
