<svg
  width="100%"
  height="100%"
  viewBox="0 0 24 24"
  fill="none"
  xmlns="http://www.w3.org/2000/svg"
>
  <path
    d="M21.485 5.126l-9-5c-.02-.011-.042-.015-.063-.025a.99.99 0 00-.766-.032c-.027.01-.053.019-.079.032-.021.01-.043.014-.063.025l-9 5A1 1 0 002 6v6.026c.11 4.112 1.312 9.185 9.689 11.924a1.007 1.007 0 00.622 0C20.688 21.21 21.89 16.139 22 12V6a.999.999 0 00-.515-.874zM11 21.57C5.608 19.428 4.32 16.244 4.056 13H11v8.57zM11 11H4V6.589l7-3.89v8.3zm2 10.57V13h6.942c-.268 3.256-1.561 6.432-6.942 8.57zM20 11h-7V2.699l7 3.89v4.41z"
    fill="currentColor"
  />
</svg>
