<svg
  width="100%"
  height="100%"
  viewBox="0 0 24 24"
  fill="none"
  xmlns="http://www.w3.org/2000/svg"
>
  <path
    d="M19 8H8V6C8 3.794 9.794 2 12 2C13.269 2 14.435 2.582 15.199 3.598C15.531 4.038 16.158 4.128 16.599 3.795C17.04 3.463 17.129 2.836 16.796 2.395C15.651 0.873 13.903 0 12 0C8.691 0 6 2.691 6 6V8H5C3.346 8 2 9.346 2 11V21C2 22.654 3.346 24 5 24H19C20.654 24 22 22.654 22 21V11C22 9.346 20.654 8 19 8ZM20 21C20 21.552 19.551 22 19 22H5C4.449 22 4 21.552 4 21V11C4 10.448 4.449 10 5 10H19C19.551 10 20 10.448 20 11V21ZM12 12C9.794 12 8 13.794 8 16C8 18.206 9.794 20 12 20C14.206 20 16 18.206 16 16C16 13.794 14.206 12 12 12ZM12 18C10.897 18 10 17.103 10 16C10 14.897 10.897 14 12 14C13.103 14 14 14.897 14 16C14 17.103 13.103 18 12 18Z"
    fill="currentColor"
  />
</svg>
