<svg
  width="100%"
  height="100%"
  viewBox="0 0 24 24"
  fill="none"
  xmlns="http://www.w3.org/2000/svg"
>
  <path
    d="M23.372 20.087C20.695 19.015 18.39 17.772 16.435 16.517C16.871 16.119 17.298 15.717 17.706 15.312C19.83 13.2 21 10.487 21 7.672C21 3.441 16.963 0 12 0C7.03699 0 2.99999 3.441 2.99999 7.672C2.99999 10.487 4.16999 13.2 6.29399 15.312C6.66799 15.684 7.09799 16.088 7.55399 16.505C5.37299 17.905 3.05499 19.116 0.627989 20.087C0.114989 20.292 -0.134011 20.874 0.0709891 21.387C0.228989 21.778 0.603989 22.016 0.999989 22.016C1.12399 22.016 1.24999 21.994 1.37199 21.945C4.09999 20.853 6.69899 19.476 9.12699 17.869C9.49799 18.176 9.88799 18.487 10.297 18.804C8.48699 20.032 6.57499 21.143 4.58499 22.099C4.08699 22.338 3.87699 22.936 4.11599 23.433C4.28899 23.791 4.64599 24 5.01999 24C5.16499 24 5.31299 23.969 5.45199 23.901C7.74599 22.799 9.94199 21.502 12.002 20.056C13.871 21.368 16.039 22.695 18.55 23.901C18.688 23.969 18.836 24 18.98 24C19.353 24 19.71 23.791 19.882 23.433C20.121 22.936 19.911 22.338 19.413 22.099C13.883 19.442 9.99199 16.17 7.70299 13.894C5.95999 12.16 4.99999 9.951 4.99999 7.672C4.99999 4.544 8.14099 2 12 2C15.859 2 19 4.544 19 7.672C19 9.951 18.04 12.16 16.296 13.894C15.799 14.388 15.27 14.877 14.73 15.359C14.326 15.069 13.934 14.78 13.568 14.496C13.933 14.173 14.288 13.849 14.628 13.524C16.157 12.062 17 10.172 17 8.203C17 5.886 14.757 4 12 4C9.24299 4 6.99999 5.886 6.99999 8.203C6.99999 10.172 7.84299 12.061 9.37299 13.523C11.935 15.969 16.314 19.416 22.628 21.944C22.75 21.993 22.876 22.015 23 22.015C23.396 22.015 23.771 21.778 23.929 21.387C24.134 20.875 23.885 20.293 23.372 20.087ZM11.999 13.209C11.543 12.813 11.128 12.434 10.754 12.076C9.62299 10.996 8.99999 9.621 8.99999 8.203C8.99999 7.009 10.374 6 12 6C13.626 6 15 7.009 15 8.203C15 9.621 14.377 10.996 13.246 12.076C12.85 12.454 12.433 12.834 11.999 13.209Z"
    fill="currentColor"
  />
</svg>
