<svg
  width="100%"
  height="100%"
  viewBox="0 0 24 24"
  fill="none"
  xmlns="http://www.w3.org/2000/svg"
>
  <path
    fillRule="evenodd"
    clipRule="evenodd"
    d="M15.514.143a1 1 0 00-1.028 0l-5 3A1 1 0 009 4v4a1 1 0 102 0V4.566l4-2.4 4 2.4V13a1 1 0 00.445.832L22 15.535V22h-5a1 1 0 100 2h6a1 1 0 001-1v-8a1 1 0 00-.445-.832L21 12.465V4a1 1 0 00-.485-.857l-5-3zM6 20a1 1 0 112 0v2H6v-2zm4 0v2h2v-6.465l-5-3.333-5 3.333V22h2v-2a3 3 0 116 0zm3 4H1a1 1 0 01-1-1v-8a1 1 0 01.445-.832l6-4a1 1 0 011.11 0l6 4A1 1 0 0114 15v8a1 1 0 01-1 1zm3-17a1 1 0 10-2 0v.01a1 1 0 102 0V7z"
    fill="currentColor"
  />
</svg>
