<svg
      width="100%"
      height="100%"
      viewBox="0 0 24 24"
      fill="none"
      xmlns="http://www.w3.org/2000/svg"
    >
      <rect x=".5" y="5" width="23" height="14" rx="2.5" fill="#fff" />
      <path
        fillRule="evenodd"
        clipRule="evenodd"
        d="M3.02 9h2.47c.333.012.601.11.694.442l.537 2.405c-.326-.777-.935-1.473-1.807-1.995.86.527 1.598 1.418 1.85 2.247l.16.79L8.414 9h1.614L7.63 14.692l-1.612.002-1.364-4.988.006.004A6.687 6.687 0 003 9.109L3.02 9zm8.122 5.694H9.616L10.57 9h1.527l-.955 5.694zm5.09-5.462C15.932 9.12 15.46 9 14.873 9c-1.498 0-2.553.748-2.562 1.82-.008.793.754 1.235 1.328 1.499.59.27.789.443.786.684-.004.37-.471.539-.907.539-.607 0-.929-.084-1.427-.29l-.195-.087-.213 1.235c.354.153 1.01.287 1.689.294 1.593 0 2.627-.74 2.64-1.885.005-.627-.399-1.105-1.273-1.498-.53-.256-.855-.426-.851-.684 0-.23.274-.475.868-.475.495-.007.854.1 1.134.212l.136.063.206-1.195zM18.825 9h1.157l1.212 5.694h-1.39s-.137-.655-.182-.854l-1.053-.001-.864-.001c-.058.154-.315.856-.315.856h-1.572l2.223-5.222c.158-.37.426-.472.784-.472zm-.093 2.08s-.472 1.264-.596 1.592h1.243l-.347-1.645-.101-.491c-.04.112-.094.26-.137.372-.038.104-.066.179-.062.171z"
        fill="#192063"
      />
      <path
        d="M.75 16.5h22.5v.25a2 2 0 01-2 2H2.75a2 2 0 01-2-2v-.25z"
        fill="#F7B600"
      />
      <path
        d="M.75 7.25a2 2 0 012-2h18.5a2 2 0 012 2v.25H.75v-.25z"
        fill="#192063"
      />
      <rect x=".5" y="5" width="23" height="14" rx="2.5" stroke="#AEAEAE" />
    </svg>