<svg
  width="100%"
  height="100%"
  viewBox="0 0 24 24"
  fill="none"
  xmlns="http://www.w3.org/2000/svg"
>
  <path
    d="M12 8C11.447 8 11 8.447 11 9V12H9C8.447 12 8 12.447 8 13C8 13.553 8.447 14 9 14H12C12.553 14 13 13.553 13 13V9C13 8.447 12.553 8 12 8ZM17 4.522V3C17 1.346 15.654 0 14 0H10C8.346 0 7 1.346 7 3V4.522C4.59 6.138 3 8.886 3 12C3 15.114 4.59 17.862 7 19.478V21C7 22.654 8.346 24 10 24H14C15.654 24 17 22.654 17 21V19.478C19.41 17.861 21 15.113 21 12C21 8.887 19.41 6.138 17 4.522ZM9 3C9 2.448 9.448 2 10 2H14C14.552 2 15 2.448 15 3V3.525C14.06 3.191 13.053 3 12 3C10.947 3 9.94 3.191 9 3.525V3ZM15 21C15 21.552 14.552 22 14 22H10C9.448 22 9 21.552 9 21V20.475C9.94 20.809 10.947 21 12 21C13.053 21 14.06 20.809 15 20.475V21ZM12 19C8.141 19 5 15.859 5 12C5 8.141 8.141 5 12 5C15.859 5 19 8.141 19 12C19 15.859 15.859 19 12 19Z"
    fill="currentColor"
  />
</svg>
