<svg
  width="100%"
  height="100%"
  viewBox="0 0 24 24"
  fill="none"
  xmlns="http://www.w3.org/2000/svg"
>
  <path
    fillRule="evenodd"
    clipRule="evenodd"
    d="M17.26 3.764a.72.72 0 00-1.16-.2l-2.429 2.428-1.005-.336-.335-1.003 2.421-2.42a.724.724 0 00-.202-1.161c-1.884-.89-4.161-.688-5.807.513a5.71 5.71 0 00-2.27 5.704l-4.932 4.927c-1.27 1.269-1.366 3.26-.218 4.533a3.23 3.23 0 001.025.764v4.4c0 .72.584 1.304 1.304 1.304h18.782c.72 0 1.305-.584 1.305-1.304v-7.305a6 6 0 00-6-6H17.3a5.731 5.731 0 00-.04-4.844zm-1.019 6.41a5.743 5.743 0 01-5.209 1.67L6 16.874a3.241 3.241 0 01-2.086.937v3.84h5.671a.907.907 0 01.073-.081l5.652-5.652a.908.908 0 011.284 1.284l-4.45 4.45h10.03v-7.044a4.435 4.435 0 00-4.434-4.434H16.24zm-1.575-.926a3.974 3.974 0 01-3.82 1.019 1.601 1.601 0 01-.188-.07c-.169-.07-.331-.138-.454-.015l-4.908 4.9c-.321.322-.994.859-1.449.841-.456-.011-.856-.146-1.182-.545-.538-.784-.092-1.623.568-2.28l4.815-4.81c.168-.168.296-.663.234-.893-.424-1.591-.066-3.173 1.274-4.15a3.885 3.885 0 012.29-.728c.117 0 .14-.01.155-.016.017-.008.022-.01.162.017l-.797.727-.512.553a1 1 0 00-.25.894c.029.131.06.258.087.34l.545 1.633a.667.667 0 00.421.42l1.635.544c.238.079 1.02.022 1.199-.155l1.663-1.63c.25 1.27-.544 2.463-1.488 3.404z"
    fill="currentColor"
  />
</svg>
