<svg width="140" height="96" viewBox="0 0 140 96" fill="none" xmlns="http://www.w3.org/2000/svg">
<path d="M114 75.2051V77.7659L107.789 82.5598L66.8887 54.0303C67.895 53.6426 68.8756 53.196 69.825 52.6931L107.956 79.6413L114 75.2051Z" fill="#112035"/>
<path d="M114 75.4383L107.929 80L69.5557 52.2055C69.7727 52.0883 69.9863 51.9676 70.1999 51.84L114 75.4383Z" fill="white"/>
<path d="M114 74.8801L70.4443 52.2983C72.6684 51.0741 74.6358 49.4724 76.2482 47.5734L114 74.8801Z" fill="white"/>
<path d="M79.3335 31.3598V38.8147C79.3335 41.9902 78.0772 44.9688 75.8869 47.5239L73.4107 45.7827L65.2034 49.9588L65.1346 53.331L66.1302 53.9981C62.2744 55.4077 58.1611 56.1233 54.013 56.1062C51.7701 56.1093 49.5325 55.9059 47.3335 55.4991V48.1442L47.4023 48.0542C49.5792 48.4527 51.7935 48.6526 54.013 48.6512C67.991 48.6479 79.3335 40.9095 79.3335 31.3598Z" fill="#112035"/>
<path d="M73.3057 45.0131L75.778 46.8368C74.104 48.8476 72.0615 50.5435 69.7525 51.8398L65.1113 49.3942L73.3057 45.0131Z" fill="white"/>
<path d="M70.4445 17.9059L48.4568 47.5731C44.5254 46.8733 40.8045 45.3701 37.5557 43.1692L59.4175 14.2931C63.3167 14.7737 67.0698 16.0033 70.4445 17.9059Z" fill="#ECD2D0"/>
<path d="M65.1113 50.1333L70.4447 52.3567C70.1913 52.4742 69.9379 52.5853 69.6804 52.6933L65.1113 50.1333Z" fill="white"/>
<path d="M65.1868 50.1333L69.5558 52.4164C68.4718 52.8414 67.3524 53.2189 66.2036 53.5466L65.1113 52.9815L65.1868 50.1333Z" fill="#112035"/>
<path d="M48.2223 47.7802L48.1574 47.8706V55.2535C44.3342 54.5396 40.7161 53.0176 37.5557 50.7937V43.3069C40.7346 45.5433 44.3756 47.0703 48.2223 47.7802Z" fill="white"/>
<path d="M79.3332 30.5067C79.3332 39.934 68.3902 47.5733 54.8835 47.5733C52.7422 47.5747 50.6059 47.3773 48.5057 46.984C44.5793 46.2849 40.8632 44.7832 37.6186 42.5847C33.1862 39.4961 30.4443 35.2253 30.4443 30.5067C30.4443 21.0827 41.3838 13.44 54.894 13.44C56.4225 13.4388 57.9491 13.5389 59.4627 13.7396C63.3579 14.2237 67.1062 15.4565 70.4755 17.3617C75.8859 20.4866 79.3332 25.2184 79.3332 30.5067Z" fill="white" stroke="#112035" stroke-width="1.5" stroke-linecap="round" stroke-linejoin="round"/>
<path d="M66.8888 53.9433C63.1371 55.3895 59.1349 56.1237 55.0988 56.1061C52.9164 56.1094 50.7393 55.9007 48.5996 55.4833C44.6617 54.7536 40.9351 53.1981 37.6797 50.9251C33.2096 47.7151 30.4443 43.2732 30.4443 38.3693V29.6531" stroke="#112035" stroke-width="1.5" stroke-linecap="round" stroke-linejoin="round"/>
<path d="M79.3334 29.6531V38.5019C79.3334 41.8094 78.0374 44.9119 75.7778 47.5731" stroke="#112035" stroke-width="1.5" stroke-linecap="round" stroke-linejoin="round"/>
<path d="M65.1751 49.2878L65.1113 52.7397L66.0847 53.4191L107.696 82.5598L114 77.6672V75.0518L75.624 46.7954L73.1993 45.0131L65.1751 49.2878Z" stroke="#112035" stroke-width="1.5" stroke-linecap="round" stroke-linejoin="round"/>
<path d="M65.1113 50.1333L69.01 52.8543L107.858 79.9999L114 75.5447" stroke="#112035" stroke-width="1.5" stroke-linecap="round" stroke-linejoin="round"/>
<path d="M47.3335 55.2532V47.8803L47.4032 47.79L70.4446 17.7066" stroke="#112035" stroke-width="1.5" stroke-linecap="round" stroke-linejoin="round"/>
<path d="M37.5557 50.1331V42.8452L58.889 14.2931" stroke="#112035" stroke-width="1.5" stroke-linecap="round" stroke-linejoin="round"/>
<path d="M43.7778 43.0358C43.7778 43.0358 39.0759 37.549 32.8151 34.1533C32.492 33.9645 32.1149 33.8871 31.7427 33.9331C31.3706 33.979 31.0242 34.1457 30.7578 34.4072C28.8179 36.5229 24.4649 42.4892 26.5542 51.5692C26.6085 51.7662 26.7023 51.9504 26.8298 52.111C26.9573 52.2715 27.1161 52.405 27.2966 52.5036C27.4772 52.6022 27.6759 52.6641 27.8809 52.6852C28.086 52.7064 28.2933 52.6866 28.4905 52.6271C31.0034 51.8231 36.1323 50.4231 39.9871 50.9168" fill="#ECD2D0"/>
<path d="M43.7778 43.0358C43.7778 43.0358 39.0759 37.549 32.8151 34.1533C32.492 33.9645 32.1149 33.8871 31.7427 33.9331C31.3706 33.979 31.0242 34.1457 30.7578 34.4072C28.8179 36.5229 24.4649 42.4892 26.5542 51.5692C26.6085 51.7662 26.7023 51.9504 26.8298 52.111C26.9573 52.2715 27.1161 52.405 27.2966 52.5036C27.4772 52.6022 27.6759 52.6641 27.8809 52.6852C28.086 52.7064 28.2933 52.6866 28.4905 52.6271C31.0034 51.8231 36.1323 50.4231 39.9871 50.9168" stroke="#112035" stroke-width="1.5" stroke-linecap="round" stroke-linejoin="round"/>
<path d="M49.4096 44.6197C49.4096 44.6197 55.9427 42.2379 62.8828 42.4691C63.258 42.4753 63.6214 42.6015 63.9194 42.8291C64.2175 43.0567 64.4347 43.3737 64.5389 43.7335C65.2873 46.697 65.302 49.7977 64.5819 52.7682C63.8619 55.7387 62.4286 58.4896 60.4057 60.7837C60.2649 60.9284 60.0955 61.0425 59.9083 61.1186C59.7211 61.1948 59.5201 61.2314 59.318 61.2261C59.1159 61.2209 58.9171 61.1738 58.7342 61.088C58.5512 61.0022 58.388 60.8796 58.2549 60.7277C56.4514 58.7558 52.6621 54.931 49.1113 53.4004" fill="#ECD2D0"/>
<path d="M49.4096 44.6197C49.4096 44.6197 55.9427 42.2379 62.8828 42.4691C63.258 42.4753 63.6214 42.6015 63.9194 42.8291C64.2175 43.0567 64.4347 43.3737 64.5389 43.7335C65.2873 46.697 65.302 49.7977 64.5819 52.7682C63.8619 55.7387 62.4286 58.4896 60.4057 60.7837C60.2649 60.9284 60.0955 61.0425 59.9083 61.1186C59.7211 61.1948 59.5201 61.2314 59.318 61.2261C59.1159 61.2209 58.9171 61.1738 58.7342 61.088C58.5512 61.0022 58.388 60.8796 58.2549 60.7277C56.4514 58.7558 52.6621 54.931 49.1113 53.4004" stroke="#112035" stroke-width="1.5" stroke-linecap="round" stroke-linejoin="round"/>
<path d="M43.7777 54.5947C43.7777 54.5947 36.041 68.5121 36.441 72.3199C36.441 72.3199 34.4123 68.0683 34.96 65.4128C34.96 65.4128 31.0647 67.0777 30.4449 69.7229C30.4449 69.7229 30.1998 60.2153 40.1742 50.1333" fill="#ECD2D0"/>
<path d="M43.7777 54.5947C43.7777 54.5947 36.041 68.5121 36.441 72.3199C36.441 72.3199 34.4123 68.0683 34.96 65.4128C34.96 65.4128 31.0647 67.0777 30.4449 69.7229C30.4449 69.7229 30.1998 60.2153 40.1742 50.1333" stroke="#112035" stroke-width="1.5" stroke-linecap="round" stroke-linejoin="round"/>
<path d="M44.0224 55.6083C44.0224 55.6083 44.1671 71.1683 42 74.2173C42 74.2173 45.8131 71.5733 46.6018 69.0497C46.6018 69.0497 49.2247 72.333 48.5084 74.88C48.5084 74.88 53.2658 66.9043 49.3297 53.5467" fill="#ECD2D0"/>
<path d="M44.0224 55.6083C44.0224 55.6083 44.1671 71.1683 42 74.2173C42 74.2173 45.8131 71.5733 46.6018 69.0497C46.6018 69.0497 49.2247 72.333 48.5084 74.88C48.5084 74.88 53.2658 66.9043 49.3297 53.5467" stroke="#112035" stroke-width="1.5" stroke-linecap="round" stroke-linejoin="round"/>
<path d="M43.1301 55.0969C40.4329 54.4134 38.7974 51.7032 39.4941 49.0682L40.0417 47.0177C40.7384 44.3828 43.5101 42.7834 46.2073 43.4635C48.9008 44.147 50.5362 46.8571 49.8396 49.492L49.2957 51.5597C48.599 54.1775 45.8236 55.777 43.1301 55.0969Z" fill="#ECD2D0" stroke="#112035" stroke-width="1.5" stroke-linecap="round" stroke-linejoin="round"/>
<path d="M81.2444 57.5816V60.7995L88.7291 66.3205L92.8916 65.6263L99.7812 70.3818L99.4066 73.4829L103.762 76.4964L107.539 75.7373L109.555 77.129L109.244 79.9998L104.99 78.8839L70.4443 55.7651L70.7525 53.3322L74.1622 52.6931L79.7671 56.5631L81.2444 57.5816Z" fill="#112035" stroke="#112035" stroke-width="1.5" stroke-linecap="round" stroke-linejoin="round"/>
</svg>
